<svg id="Layer_1" data-name="Layer 1" xmlns="http://www.w3.org/2000/svg" viewBox="0 0 379.22 86.89"><defs><style>.cls-1,.cls-3,.cls-4{fill:#6d28d9;}.cls-2{fill:#fff;}.cls-3{font-size:52.45px;font-family:DOVENSPersonalUse-Thin, DOVENS Personal Use;font-weight:200;}.cls-4{font-size:16.83px;font-family:Rockwell-ExtraBold, Rockwell Extra Bold;font-weight:800;}.cls-5{letter-spacing:-0.05em;}.cls-6{letter-spacing:-0.13em;}.cls-7{letter-spacing:-0.05em;}.cls-8{letter-spacing:-0.08em;}.cls-9{letter-spacing:0em;}</style></defs><polygon class="cls-1" points="68.54 86.52 13.5 86.52 16.95 4.37 65.05 4.37 68.54 86.52"/><polygon class="cls-1" points="80.54 86.52 74.22 86.52 70.72 4.37 77.17 4.37 80.54 86.52"/><polygon class="cls-1" points="8.12 86.89 0 86.89 3.44 4.74 11.57 4.74 8.12 86.89"/><rect class="cls-2" x="39.65" y="7.76" width="3.15" height="11.4"/><rect class="cls-2" x="39.73" y="40.69" width="3.15" height="11.4"/><rect class="cls-2" x="39.73" y="24.03" width="3.15" height="11.4"/><rect class="cls-2" x="39.73" y="57.85" width="3.15" height="11.4"/><rect class="cls-2" x="39.73" y="73.5" width="3.15" height="11.4"/><text class="cls-3" transform="translate(84.87 44.59) scale(0.57 1)">DRIVE ALERT</text><text class="cls-4" transform="translate(86.93 70.18) scale(0.97 1)"><tspan class="cls-5">T</tspan><tspan x="11.79" y="0">AKE</tspan><tspan class="cls-6" x="51.58" y="0"> </tspan><tspan class="cls-7" x="53.68" y="0">Y</tspan><tspan x="65.12" y="0">OUR</tspan><tspan class="cls-8" x="106.33" y="0"> </tspan><tspan class="cls-9" x="109.27" y="0">TRIP SAFE</tspan></text></svg>